<?xml version="1.0" encoding="iso-8859-1"?>
<!-- Generator: Adobe Illustrator 19.0.0, SVG Export Plug-In . SVG Version: 6.00 Build 0)  -->
<svg version="1.1" id="Capa_1" xmlns="http://www.w3.org/2000/svg" xmlns:xlink="http://www.w3.org/1999/xlink" x="0px" y="0px"
	 viewBox="0 0 490 490" style="enable-background:new 0 0 490 490;" xml:space="preserve">
<g>
	<g>
		<g>
			<path d="M245,0C109.5,0,0,109.5,0,245s109.5,245,245,245s245-109.5,245-245S380.5,0,245,0z M245,449.3
				c-112.6,0-204.3-91.7-204.3-204.3S132.4,40.7,245,40.7S449.3,132.4,449.3,245S357.6,449.3,245,449.3z"/>
		</g>
		<path d="M301.1,260.4c9.7,0,17.5-7.8,17.5-17.5c0-9.7-7.8-17.5-17.5-17.5H280l38.5-59.8c5.2-8.1,2.9-19-5.2-24.2s-19-2.9-24.2,5.2
			L245,215.1l-44.1-68.4c-5.2-8.1-16.1-10.5-24.2-5.2c-8.1,5.2-10.5,16.1-5.2,24.2l38.5,59.8h-21.2c-9.7,0-17.5,7.8-17.5,17.5
			s7.8,17.5,17.5,17.5h38.6v17.1h-38.6c-9.7,0-17.5,7.8-17.5,17.5s7.8,17.5,17.5,17.5h38.6V334c0,9.7,7.8,17.5,17.5,17.5
			c9.7,0,17.5-7.8,17.5-17.5v-21.4H301c9.7,0,17.5-7.8,17.5-17.5s-7.8-17.5-17.5-17.5h-38.6v-17.1h38.7V260.4z"/>
	</g>
</g>
<g>
</g>
<g>
</g>
<g>
</g>
<g>
</g>
<g>
</g>
<g>
</g>
<g>
</g>
<g>
</g>
<g>
</g>
<g>
</g>
<g>
</g>
<g>
</g>
<g>
</g>
<g>
</g>
<g>
</g>
</svg>
