<?xml version="1.0" encoding="iso-8859-1"?>
<!-- Generator: Adobe Illustrator 19.0.0, SVG Export Plug-In . SVG Version: 6.00 Build 0)  -->
<svg version="1.1" id="Capa_1" xmlns="http://www.w3.org/2000/svg" xmlns:xlink="http://www.w3.org/1999/xlink" x="0px" y="0px"
	 viewBox="0 0 490 490" style="enable-background:new 0 0 490 490;" xml:space="preserve">
<g>
	<g>
		<path d="M435.58,15.312L293.394,229.463h103.307v35.332H272.724v50.869h123.977v35.361H272.724v123.663h-65.919V351.025H83.635
			v-35.361h123.169v-50.869H83.635v-35.332h103.277L53.459,15.312h74.682l82.611,145.587c12.711,24.025,22.251,43.13,31.795,64.306
			h2.392c7.926-19.767,18.243-41.691,31.762-65.716l85.778-144.177H435.58 M464.126,0H435.58h-73.101h-8.707l-4.452,7.483
			l-85.778,144.177c-7.424,13.191-14.191,26.256-20.27,39.133c-5.514-11.232-11.623-23.137-18.984-37.055L141.458,7.755L137.057,0
			h-8.916H53.459H25.874l14.591,23.411l118.863,190.74H83.635H68.323v15.313v35.332v15.313h15.313h107.857v20.244H83.635H68.323
			v15.312v35.361v15.313h15.313h107.857v108.35V490h15.312h65.919h15.312v-15.313v-108.35h108.664h15.312v-15.313v-35.361v-15.312
			h-15.312H288.036v-20.244h108.664h15.312v-15.313v-35.332v-15.313h-15.312H321.94L448.336,23.783L464.126,0L464.126,0z"/>
	</g>
</g>
<g>
</g>
<g>
</g>
<g>
</g>
<g>
</g>
<g>
</g>
<g>
</g>
<g>
</g>
<g>
</g>
<g>
</g>
<g>
</g>
<g>
</g>
<g>
</g>
<g>
</g>
<g>
</g>
<g>
</g>
</svg>
